<svg width="200" height="74" viewBox="0 0 200 74" fill="none" xmlns="http://www.w3.org/2000/svg">
<path fillRule="evenodd" clipRule="evenodd" d="M83.9193 36.6351C79.5475 35.3396 75.6875 33.9886 73.5908 32.3393C72.9124 31.7749 72.2545 31.0819 72.2223 30.0175C72.2135 29.187 72.7516 28.453 73.3774 28.0173C74.0149 27.5552 74.781 27.2394 75.7489 26.947C79.4306 25.8592 83.3578 25.2714 86.7734 24.4965C90.1948 23.7391 93.0196 22.7624 94.5519 21.271C95.5695 20.2768 96.1807 19.0837 96.2216 17.18V17.1186C96.2216 15.8231 95.4087 14.5862 93.4231 13.2761C91.458 11.9894 88.4285 10.8022 84.6796 9.7904C77.1701 7.76097 66.7978 6.40119 55.8874 5.52099C34.09 3.74889 10.1287 3.82492 1.57816 3.74304H1.53137C1.35424 3.74235 1.17842 3.71272 1.01085 3.65532L0.98161 3.64947L0.975761 3.64362L0.946519 3.63777L0.94067 3.63192C0.931897 3.63192 0.923125 3.629 0.917276 3.62315C0.912737 3.62093 0.907699 3.61992 0.902655 3.62023C0.897062 3.61682 0.891193 3.61388 0.885109 3.61145L0.870488 3.60268C0.857305 3.59801 0.84458 3.59214 0.832473 3.58514H0.8237C0.601422 3.48685 0.408825 3.33195 0.265145 3.13593C0.121465 2.93991 0.0317316 2.70962 0.00490884 2.46807C-0.062349 1.69899 0.56929 1.03226 1.42317 0.973777C10.3948 0.333365 21.0244 0 32.2828 0C61.4961 0.00584851 94.8882 2.2429 114.685 7.44223C121.3 9.19678 126.42 11.2262 129.529 13.8844C131.295 15.3962 132.424 17.2385 132.424 19.2884C132.424 19.3615 132.424 19.4404 132.415 19.5311C132.319 22.2097 130.626 24.2976 128.418 25.6925C126.207 27.1108 123.441 27.9997 120.639 28.6138C117.732 29.2484 114.77 29.5701 112.378 29.7367C134.819 41.2729 167.781 43.5509 186.464 43.5275C191.748 43.5275 195.904 43.3521 198.325 43.1678C199.167 43.1035 199.91 43.665 199.992 44.4165C200.079 45.171 199.46 45.8465 198.623 45.9283C185.727 47.2033 173.849 47.7355 162.982 47.7355C123.493 47.7414 97.327 40.6793 83.9222 36.6351" fill="#F2B02D"/>
<path fillRule="evenodd" clipRule="evenodd" d="M15.0677 70.8255C15.6584 70.343 15.9538 69.6324 15.9538 68.6937C15.9538 67.7579 15.6467 67.0122 15.0326 66.4654C14.4185 65.9157 13.5793 65.6437 12.5119 65.6437H1.60739V71.5507H12.471C13.6115 71.5507 14.477 71.3109 15.0707 70.8255H15.0677ZM13.55 64.05C13.9175 63.9184 14.2536 63.712 14.537 63.4437C14.8204 63.1753 15.045 62.8511 15.1964 62.4914C15.3543 62.1258 15.4333 61.7252 15.4333 61.2924C15.4472 60.9345 15.3872 60.5776 15.2568 60.244C15.1265 59.9104 14.9287 59.6073 14.6759 59.3536C14.1729 58.8565 13.4857 58.6079 12.6201 58.6079H1.60739V64.281H12.2985C12.7459 64.281 13.164 64.202 13.5559 64.05H13.55ZM16.6351 66.3455C17.1615 66.9742 17.4247 67.7843 17.4247 68.7814C17.4247 69.416 17.3136 69.9862 17.0913 70.4921C16.8661 70.9951 16.5416 71.4279 16.1175 71.7905C15.6586 72.1692 15.1287 72.4525 14.5589 72.6239C13.9448 72.8169 13.2547 72.9163 12.4915 72.9163H0.194977V57.2423H12.3833C13.8395 57.2423 14.9654 57.6049 15.7579 58.3243C16.5533 59.0466 16.951 60.0204 16.951 61.2485C16.951 62.158 16.7287 62.9037 16.2901 63.4885C15.8514 64.0734 15.1613 64.5383 14.2226 64.8863C15.3046 65.2314 16.1088 65.7197 16.6351 66.3484V66.3455ZM25.2178 72.9163V57.2452H39.8303V58.6079H26.6244V63.933H35.8036V65.2957H26.6244V71.5507H40.4356V72.9163H25.2178ZM54.2001 58.6079V72.9163H52.7935V58.6079H45.3045V57.2452H61.692V58.6079H54.2001ZM81.8752 63.819C82.0951 63.6265 82.2688 63.387 82.3832 63.1181C82.4976 62.8493 82.5499 62.5581 82.5361 62.2662C82.5453 61.9849 82.4894 61.7052 82.3727 61.4491C82.2561 61.1929 82.0818 60.9672 81.8635 60.7894C81.4161 60.4181 80.7816 60.2338 79.9599 60.2338H71.3655V64.3863H79.9803C80.802 64.3863 81.4337 64.1991 81.8752 63.819ZM82.4279 72.9134L78.5738 67.3749H71.3655V72.9163H67.5552V57.2423H80.3926C81.2875 57.2423 82.0975 57.3681 82.8286 57.6137C83.5567 57.8564 84.1737 58.2073 84.6884 58.6635C85.2001 59.1168 85.5978 59.6578 85.8785 60.2865C86.1622 60.9152 86.3026 61.6112 86.3026 62.3744C86.3026 64.8717 85.1124 66.4449 82.7291 67.0941L86.712 72.9134H82.4279ZM93.5956 72.9163H97.406V57.2452H93.5956V72.9163ZM115.802 72.9163H112.252L102.991 57.2452H107.255L114.027 68.7171L120.803 57.2452H125.069L115.802 72.9163ZM130.307 72.9163V57.2452H147.3V60.2309H134.117V63.4768H143.273V66.4654H134.117V69.9277H147.905V72.9163H130.307ZM169.17 63.819C169.39 63.6265 169.564 63.387 169.678 63.1181C169.792 62.8493 169.845 62.5581 169.831 62.2662C169.84 61.9848 169.785 61.7051 169.668 61.4489C169.551 61.1927 169.377 60.967 169.158 60.7894C168.711 60.4181 168.076 60.2338 167.258 60.2338H158.66V64.3863H167.275C168.1 64.3863 168.731 64.1991 169.17 63.819ZM169.723 72.9134L165.869 67.3749H158.66V72.9163H154.853V57.2423H167.69C168.582 57.2423 169.395 57.3681 170.123 57.6137C170.852 57.8564 171.471 58.2073 171.983 58.6635C172.498 59.1168 172.893 59.6578 173.176 60.2865C173.457 60.9152 173.597 61.6112 173.597 62.3744C173.597 64.8717 172.407 66.4449 170.027 67.0941L174.01 72.9134H169.723ZM192.646 60.3274C191.491 60.0427 190.306 59.9013 189.116 59.9063C187.473 59.9063 186.233 60.0525 185.403 60.3508C184.575 60.6461 184.16 61.0468 184.16 61.5497C184.16 62.0849 184.616 62.4621 185.522 62.6785C185.923 62.7686 186.328 62.833 186.736 62.8715C187.169 62.9154 187.634 62.9475 188.131 62.968L189.71 63.0353C190.266 63.0557 190.85 63.0938 191.456 63.1522C192.684 63.2692 193.748 63.4359 194.658 63.6494C195.564 63.8687 196.325 64.1611 196.93 64.5266C197.538 64.8951 197.989 65.3542 198.284 65.901C198.579 66.4508 198.728 67.1088 198.728 67.872C198.728 69.5739 197.951 70.9015 196.401 71.8548C194.851 72.8081 192.573 73.2819 189.573 73.2819C187.739 73.2991 185.911 73.0669 184.139 72.5917C182.444 72.1126 180.842 71.3514 179.399 70.3401L181.475 67.7843C182.832 68.6089 184.183 69.2171 185.522 69.6148C186.868 70.0125 188.271 70.2114 189.745 70.2114C191.333 70.2114 192.552 70.0067 193.4 69.6031C194.254 69.1996 194.681 68.6732 194.681 68.024C194.689 67.8707 194.66 67.7176 194.596 67.5781C194.531 67.4386 194.434 67.3166 194.313 67.2228C193.994 67.0044 193.632 66.8568 193.251 66.79C192.695 66.6776 192.131 66.612 191.564 66.5941C190.9 66.5648 190.149 66.5297 189.312 66.4859C187.97 66.4457 186.632 66.3188 185.306 66.1057C184.323 65.9589 183.365 65.6754 182.461 65.2635C181.783 64.9601 181.197 64.4817 180.765 63.8775C180.378 63.2835 180.181 62.5858 180.2 61.8773C180.2 60.3333 180.943 59.1109 182.429 58.2073C183.914 57.3067 186.084 56.8534 188.944 56.8534C192.769 56.8534 195.842 57.6195 198.164 59.1489L196 61.6609C194.943 61.0755 193.816 60.6274 192.646 60.3274Z" fill="#FFFFFE"/>
</svg>
