<svg width="200" height="44" viewBox="0 0 200 44" fill="none" xmlns="http://www.w3.org/2000/svg">
<path d="M14.9617 0.979248H27.4898C31.6445 0.979248 33.7212 0.979248 35.9574 1.68604C38.3988 2.57506 40.322 4.49788 41.2103 6.9393C41.9174 9.17613 41.9174 11.2528 41.9174 15.4072V27.9343C41.9174 32.089 41.9174 34.1657 41.2103 36.4019C40.322 38.8436 38.3988 40.7664 35.9574 41.6551C33.7212 42.3623 31.6445 42.3623 27.4898 42.3623H14.9617C10.8074 42.3623 8.73102 42.3623 6.49484 41.6551C4.0531 40.7664 2.13024 38.8436 1.2419 36.4019C0.534424 34.1657 0.534424 32.089 0.534424 27.9343V15.4072C0.534424 11.2528 0.534424 9.17618 1.2419 6.9393C2.13024 4.49788 4.05305 2.57506 6.49484 1.68604C8.73106 0.979248 10.8074 0.979248 14.9617 0.979248Z" fill="#0A3231"/>
<path d="M27.8582 43.5513H15.2487C10.9987 43.5513 8.86534 43.5513 6.50762 42.8059L6.47803 42.7959C3.81161 41.8256 1.72589 39.7396 0.755861 37.0732L0.745769 37.0439C-5.14125e-08 34.6861 0 32.5526 0 28.3018V15.6935C0 11.4431 0 9.30973 0.745812 6.9512L0.755904 6.92175C1.72594 4.25591 3.81152 2.1702 6.47795 1.1993L6.50766 1.18921C8.86538 0.44397 10.9987 0.44397 15.2488 0.44397H27.8582C32.1088 0.44397 34.2423 0.44397 36.6 1.18921L36.6297 1.1993C39.2963 2.17033 41.3818 4.25604 42.3517 6.92175L42.3618 6.95132C43.1073 9.30977 43.1073 11.4432 43.1073 15.6935V28.3019C43.1073 32.5526 43.1073 34.6861 42.3618 37.044L42.3517 37.0733C41.3817 39.7397 39.296 41.8254 36.6295 42.796L36.5999 42.8059C34.2423 43.5513 32.1088 43.5513 27.8582 43.5513ZM6.96137 41.4224C9.09952 42.0952 11.1578 42.0952 15.2487 42.0952H27.8582C31.9497 42.0952 34.0079 42.0952 36.1462 41.4224C38.3953 40.5988 40.1551 38.8387 40.9782 36.5898C41.6513 34.4517 41.6513 32.3934 41.6513 28.3019V15.6935C41.6513 11.6023 41.6513 9.54393 40.9781 7.40507C40.1552 5.15672 38.3954 3.39678 36.1461 2.57291C34.0079 1.90005 31.9497 1.90005 27.8582 1.90005H15.2487C11.1576 1.90005 9.0997 1.90005 6.9615 2.57291C4.71229 3.39665 2.95232 5.15659 2.12931 7.40524C1.45604 9.54414 1.45604 11.6024 1.45604 15.6936V28.3019C1.45604 32.3934 1.45604 34.4518 2.12931 36.5898C2.9525 38.839 4.71229 40.5991 6.96137 41.4224Z" fill="#BB9D5E"/>
<path d="M20.9386 30.2042C20.4216 29.9946 20.0728 29.6389 20.0728 29.2438C20.0728 28.8538 20.4124 28.5017 20.9184 28.2911V28.2911C20.9184 28.2911 20.9185 28.2911 20.9185 28.2911C21.0557 28.234 21.2079 28.1915 21.3661 28.1574C21.4035 28.1493 21.4402 28.1425 21.4785 28.1358C21.6413 28.1075 21.809 28.0875 21.9845 28.0875C21.9846 28.0875 21.9846 28.0875 21.9846 28.0875H21.9846C22.1602 28.0875 22.3281 28.1076 22.491 28.1359C22.5291 28.1425 22.5657 28.1493 22.6029 28.1574C23.3452 28.3174 23.8967 28.748 23.8967 29.2438C23.8967 29.742 23.3401 30.1738 22.5926 30.332C22.5559 30.3398 22.52 30.3468 22.4824 30.3533C22.3221 30.3806 22.1571 30.3999 21.9846 30.3999H21.9846C21.9846 30.3999 21.9846 30.3999 21.9845 30.3999C21.8121 30.3999 21.6472 30.3806 21.487 30.3533C21.4494 30.3468 21.4134 30.3399 21.3767 30.332C21.2223 30.2993 21.0738 30.2588 20.9391 30.2043C20.939 30.2042 20.9388 30.2042 20.9386 30.2042ZM20.1729 24.4696C20.5197 25.3087 20.7639 26.3291 20.8687 27.4638C21.2077 27.3534 21.583 27.2886 21.9846 27.2886C22.3864 27.2886 22.7617 27.3534 23.1008 27.4638C23.2056 26.3291 23.4499 25.3086 23.7967 24.4695C23.2076 24.6467 22.6022 24.7394 21.9847 24.7394C21.3673 24.7394 20.762 24.6468 20.1729 24.4696ZM21.9847 23.9405C24.9308 23.9405 27.581 21.6016 29.399 17.8955H29.4426C29.516 17.7439 29.5888 17.5914 29.6592 17.4354H14.3102C14.3807 17.5914 14.4535 17.7439 14.5268 17.8955H14.5705C16.3885 21.6016 19.0386 23.9405 21.9847 23.9405ZM31.8141 8.44728C31.8614 7.80097 31.8914 7.14491 31.8994 6.479H12.0701C12.0782 7.14491 12.1082 7.80091 12.1554 8.44728H31.8141ZM26.3192 11.7456C25.6376 11.7456 25.0832 12.3184 25.0832 13.0225C25.0832 13.7266 25.6376 14.2995 26.3192 14.2995H26.3193C27.0009 14.2995 27.5553 13.7267 27.5553 13.0225C27.5553 12.3185 27.0008 11.7456 26.3192 11.7456ZM14.5519 13.0225C14.5519 12.3185 13.9976 11.7456 13.3159 11.7456H13.3159C13.2392 11.7456 13.1648 11.755 13.092 11.7689C13.0689 11.7733 13.0467 11.7797 13.024 11.7854C12.974 11.7981 12.9253 11.8136 12.8778 11.8324C12.8546 11.8416 12.8314 11.8504 12.8087 11.8609C12.7561 11.8856 12.7058 11.9141 12.6574 11.9459C12.6452 11.9539 12.6319 11.96 12.6201 11.9684C12.62 11.9684 12.62 11.9684 12.62 11.9684V11.9685C12.2943 12.1988 12.0799 12.5851 12.0799 13.0225C12.0799 13.675 12.5577 14.2086 13.17 14.2843C13.2184 14.2903 13.266 14.2995 13.3159 14.2995H13.3159C13.9976 14.2995 14.5519 13.7267 14.5519 13.0225ZM23.0578 31.0403C22.7304 31.1418 22.3686 31.1988 21.9846 31.1988C21.6011 31.1988 21.2399 31.142 20.9128 31.0409C20.7107 32.9988 19.1672 34.7808 16.228 36.4381H27.7415C24.8066 34.783 23.2636 33.0022 23.0578 31.0403ZM29.5292 37.237H14.4403C14.1356 37.237 13.8878 37.4929 13.8878 37.8077C13.8878 38.1225 14.1356 38.3784 14.4403 38.3784H29.5292C29.6816 38.3784 29.8197 38.3144 29.9197 38.2111C30.0197 38.1078 30.0816 37.965 30.0816 37.8077C30.0816 37.6503 30.0197 37.5077 29.9197 37.4043C29.8197 37.3009 29.6816 37.237 29.5292 37.237ZM21.9846 11.7456C21.303 11.7456 20.7486 12.3184 20.7486 13.0225C20.7486 13.7266 21.303 14.2995 21.9846 14.2995H21.9847C22.6663 14.2995 23.2207 13.7267 23.2207 13.0225C23.2206 12.3185 22.6662 11.7456 21.9846 11.7456ZM31.3108 11.9452C31.2628 11.9138 31.2131 11.8856 31.1611 11.8612C31.1382 11.8504 31.1148 11.8415 31.0911 11.8322C31.0439 11.8136 30.9956 11.7982 30.9459 11.7856C30.9231 11.7798 30.9007 11.7734 30.8775 11.769C30.8046 11.7551 30.7304 11.7456 30.6537 11.7456C30.6537 11.7456 30.6537 11.7456 30.6536 11.7456H30.6536C29.972 11.7456 29.4175 12.3185 29.4175 13.0225C29.4175 13.7267 29.972 14.2996 30.6536 14.2996H30.6536C31.3352 14.2996 31.8896 13.7267 31.8896 13.0225C31.8896 12.5684 31.6574 12.1716 31.3108 11.9452ZM30.5565 15.0882C30.3847 15.6215 30.2 16.1396 29.9999 16.6365H13.9696C13.7695 16.1396 13.5847 15.6216 13.413 15.0882C14.4751 15.0346 15.3252 14.1328 15.3252 13.0225C15.3252 11.8779 14.4238 10.9467 13.3159 10.9467C13.0136 10.9467 12.7296 11.021 12.4721 11.1451C12.3712 10.5251 12.2868 9.89216 12.2231 9.24617H31.7463C31.6826 9.89216 31.5983 10.5251 31.4973 11.1451C31.2399 11.0211 30.9558 10.9467 30.6535 10.9467C29.5455 10.9467 28.6442 11.8779 28.6442 13.0225C28.6443 14.1328 29.4944 15.0346 30.5565 15.0882ZM19.6595 13.0225C19.6595 11.8779 18.7582 10.9467 17.6502 10.9467C16.5423 10.9467 15.641 11.8779 15.641 13.0225C15.641 14.1671 16.5423 15.0984 17.6502 15.0984C18.7582 15.0984 19.6595 14.1671 19.6595 13.0225ZM23.9939 13.0225C23.9939 11.8779 23.0925 10.9467 21.9846 10.9467C20.8766 10.9467 19.9753 11.8779 19.9753 13.0225C19.9753 14.1671 20.8766 15.0984 21.9846 15.0984C23.0926 15.0984 23.9939 14.1671 23.9939 13.0225ZM28.3285 13.0225C28.3285 11.8779 27.4272 10.9467 26.3192 10.9467C25.2112 10.9467 24.3099 11.8779 24.3099 13.0225C24.3099 14.1671 25.2113 15.0984 26.3192 15.0984C27.4272 15.0984 28.3285 14.1671 28.3285 13.0225ZM17.6503 11.7456C16.9686 11.7456 16.4142 12.3184 16.4142 13.0225C16.4142 13.7266 16.9687 14.2995 17.6502 14.2995H17.6503C18.3319 14.2995 18.8863 13.7267 18.8863 13.0225C18.8863 12.3185 18.3319 11.7456 17.6503 11.7456Z" fill="url(#paint0_linear_9_92)"/>
<path d="M59.7968 36.3665L53.2024 29.834C52.2556 28.9192 51.766 27.8086 51.766 26.4048V23.987C51.766 21.9626 53.1375 20.5579 55.1934 20.5579H60.548C62.6048 20.5579 64.0078 21.9626 64.0078 23.987V27.5479H59.9276V24.5103C59.9276 24.4119 59.8626 24.3795 59.7968 24.3795H55.977C55.8797 24.3795 55.8473 24.4119 55.8473 24.5103V26.7639C55.8473 26.8947 55.8797 26.9597 55.977 27.058L62.5714 33.5896C63.4858 34.5044 64.0078 35.615 64.0078 37.0197V40.0898C64.0078 42.1476 62.6048 43.5513 60.548 43.5513H55.1934C53.1375 43.5513 51.766 42.1476 51.766 40.0898V36.5298H55.8473V39.5999C55.8473 39.6648 55.8797 39.7307 55.977 39.7307H59.7968C59.8626 39.7307 59.9276 39.6648 59.9276 39.5999V36.6606C59.9276 36.5298 59.8627 36.4639 59.7968 36.3665Z" fill="#BB9D5E"/>
<path d="M75.6982 34.5703H70.9974V43.4864H66.9161V20.6238H75.6982C77.755 20.6238 79.158 22.0275 79.158 24.0529V31.1403C79.158 33.1656 77.7875 34.5703 75.6982 34.5703ZM74.947 24.3795H70.9974V30.8137H74.947C75.0128 30.8137 75.0777 30.7812 75.0777 30.6829V24.5102C75.0777 24.4119 75.0128 24.3795 74.947 24.3795Z" fill="#BB9D5E"/>
<path d="M90.4571 43.5513H85.1025C83.0791 43.5513 81.6751 42.1476 81.6751 40.0898V23.987C81.6751 21.9626 83.0791 20.5579 85.1025 20.5579H90.4571C92.5139 20.5579 93.917 21.9626 93.917 23.987V40.0898C93.917 42.1476 92.5139 43.5513 90.4571 43.5513ZM89.7059 24.3795H85.8862C85.7888 24.3795 85.7564 24.4119 85.7564 24.5103V39.5999C85.7564 39.6648 85.7889 39.7307 85.8862 39.7307H89.7059C89.7718 39.7307 89.8367 39.6648 89.8367 39.5999V24.5102C89.8367 24.4119 89.7718 24.3795 89.7059 24.3795Z" fill="#BB9D5E"/>
<path d="M105.118 43.4864L102.799 34.5703H100.907V43.4864H96.8254V20.6238H105.607C107.664 20.6238 109.067 22.0275 109.067 24.0529V31.1403C109.067 32.8066 108.154 34.047 106.652 34.4395L109.394 43.4864H105.118V43.4864ZM100.907 30.8136H104.856C104.922 30.8136 104.987 30.7812 104.987 30.6828V24.5102C104.987 24.4119 104.922 24.3794 104.856 24.3794H100.907V30.8136Z" fill="#BB9D5E"/>
<path d="M119.321 24.3795V43.4864H115.24V24.3795H111.16V20.6238H123.401V24.3795H119.321Z" fill="#BB9D5E"/>
<path d="M133.523 36.3665L126.929 29.834C125.982 28.9192 125.493 27.8086 125.493 26.4048V23.987C125.493 21.9626 126.864 20.5579 128.92 20.5579H134.275C136.332 20.5579 137.735 21.9626 137.735 23.987V27.5479H133.654V24.5103C133.654 24.4119 133.589 24.3795 133.523 24.3795H129.704C129.606 24.3795 129.574 24.4119 129.574 24.5103V26.7639C129.574 26.8947 129.606 26.9597 129.704 27.058L136.298 33.5896C137.213 34.5044 137.735 35.615 137.735 37.0197V40.0898C137.735 42.1476 136.332 43.5513 134.275 43.5513H128.92C126.864 43.5513 125.493 42.1476 125.493 40.0898V36.5298H129.574V39.5999C129.574 39.6648 129.606 39.7307 129.704 39.7307H133.523C133.589 39.7307 133.654 39.6648 133.654 39.5999V36.6606C133.654 36.5298 133.589 36.4639 133.523 36.3665Z" fill="#BB9D5E"/>
<path d="M149.457 43.4864H140.675V20.6238H149.457C151.514 20.6238 152.918 22.0275 152.918 24.0529V28.9191C152.918 30.3238 152.33 31.2061 151.285 31.5652V31.6301C152.33 31.9566 152.918 32.8715 152.918 34.2761V40.0238C152.918 42.0817 151.514 43.4864 149.457 43.4864ZM148.837 29.6706V24.5102C148.837 24.4119 148.772 24.3794 148.706 24.3794H144.757V29.8014H148.706C148.772 29.8014 148.837 29.769 148.837 29.6706ZM148.837 39.5998V33.5247C148.837 33.4598 148.772 33.3938 148.706 33.3938H144.757V39.7307H148.706C148.772 39.7307 148.837 39.6648 148.837 39.5998Z" fill="#BB9D5E"/>
<path d="M164.608 43.5513H159.253C157.23 43.5513 155.826 42.1476 155.826 40.0898V23.987C155.826 21.9626 157.23 20.5579 159.253 20.5579H164.608C166.664 20.5579 168.067 21.9626 168.067 23.987V40.0898C168.067 42.1476 166.664 43.5513 164.608 43.5513ZM163.856 24.3795H160.037C159.939 24.3795 159.907 24.4119 159.907 24.5103V39.5999C159.907 39.6648 159.939 39.7307 160.037 39.7307H163.856C163.922 39.7307 163.987 39.6648 163.987 39.5999V24.5102C163.987 24.4119 163.922 24.3795 163.856 24.3795Z" fill="#BB9D5E"/>
<path d="M179.758 43.5513H174.403C172.38 43.5513 170.976 42.1476 170.976 40.0898V23.987C170.976 21.9626 172.38 20.5579 174.403 20.5579H179.758C181.815 20.5579 183.218 21.9626 183.218 23.987V40.0898C183.218 42.1476 181.815 43.5513 179.758 43.5513ZM179.007 24.3795H175.187C175.09 24.3795 175.057 24.4119 175.057 24.5103V39.5999C175.057 39.6648 175.09 39.7307 175.187 39.7307H179.007C179.073 39.7307 179.137 39.6648 179.137 39.5999V24.5102C179.137 24.4119 179.073 24.3795 179.007 24.3795Z" fill="#BB9D5E"/>
<path d="M195.43 43.4864L191.97 34.9618L190.207 38.4893V43.4864H186.126V20.6238H190.207V31.1727L195.332 20.6238H199.609L194.614 30.6504L200 43.4864H195.43Z" fill="#BB9D5E"/>
<path d="M59.0042 2.80665C58.153 2.80665 57.3754 3.01636 56.6714 3.43573C55.9675 3.85511 55.4171 4.42658 55.0203 5.1501C54.6235 5.87362 54.4251 6.66437 54.4251 7.52234C54.4251 8.86056 54.8763 9.98265 55.7787 10.8886C56.681 11.7947 57.7946 12.2476 59.1194 12.2476C59.9578 12.2476 60.7066 12.0715 61.3657 11.7194C62.0249 11.3673 62.5753 10.9062 63.0169 10.3364L64.8408 11.9691C64.2072 12.7759 63.3912 13.4162 62.3929 13.89C61.3945 14.3638 60.2842 14.6007 59.0618 14.6007C58.0122 14.6007 57.0314 14.4166 56.1195 14.0485C55.2075 13.6803 54.4347 13.1793 53.8011 12.5454C53.1675 11.9115 52.67 11.1608 52.3084 10.2932C51.9468 9.42558 51.766 8.50195 51.766 7.52234C51.766 6.54273 51.9452 5.61911 52.3036 4.75152C52.6619 3.88394 53.1563 3.13321 53.7867 2.4993C54.4171 1.86543 55.1851 1.36439 56.0907 0.99622C56.9963 0.628053 57.9738 0.44397 59.0234 0.44397C60.0218 0.44397 60.9497 0.616864 61.8073 0.962607C62.6649 1.30835 63.4136 1.7918 64.0536 2.41285L62.3449 4.21845C61.4041 3.27728 60.2905 2.80665 59.0042 2.80665Z" fill="#E7E2DD"/>
<path d="M68.4022 14.4085H65.6279L71.5221 0.635986H73.3941L79.2883 14.4085H76.5236L75.218 11.364H69.6982L68.4022 14.4085ZM72.4533 4.92915L70.6965 9.00136H74.2004L72.4533 4.92915Z" fill="#E7E2DD"/>
<path d="M89.1183 2.99874H83.5121V5.85122H87.7456V8.2139H83.5121V12.046H89.3103V14.4086H80.8625V0.636108H89.1183V2.99874Z" fill="#E7E2DD"/>
<path d="M90.5871 12.5358L92.3246 10.7302C92.7342 11.1848 93.2254 11.5513 93.7982 11.8298C94.371 12.1084 94.9614 12.2476 95.5693 12.2476C96.1581 12.2476 96.6397 12.0828 97.0141 11.753C97.3885 11.4233 97.5757 11.0087 97.5757 10.5093C97.5757 10.1763 97.4861 9.88181 97.3069 9.62568C97.1277 9.36958 96.8733 9.15189 96.5437 8.97259C96.2142 8.79328 95.8766 8.63483 95.531 8.49717C95.1854 8.35952 94.7838 8.19465 94.3262 8.00254C93.8686 7.81042 93.483 7.62476 93.1694 7.4455C91.8702 6.68354 91.2207 5.63991 91.2207 4.31451C91.2207 3.71903 91.3503 3.17319 91.6095 2.67697C91.8687 2.18076 92.211 1.77257 92.6366 1.45241C93.0622 1.13225 93.5454 0.884145 94.0862 0.708094C94.627 0.532042 95.1853 0.44397 95.7613 0.44397C97.2589 0.44397 98.59 0.87616 99.7548 1.74054L98.3724 3.70942C98.0908 3.44692 97.734 3.2308 97.302 3.06111C96.87 2.89142 96.4364 2.8066 96.0013 2.8066C95.7389 2.8066 95.4861 2.83543 95.2429 2.89305C94.9997 2.95066 94.7741 3.03553 94.5661 3.14756C94.3581 3.25959 94.1902 3.41489 94.0622 3.61336C93.9342 3.81184 93.8702 4.03915 93.8702 4.29528C93.8702 4.55778 93.9614 4.79633 94.1438 5.01082C94.3262 5.22531 94.5662 5.40299 94.8638 5.54385C95.1614 5.68471 95.5006 5.83676 95.8813 6.00004C96.2621 6.16333 96.6509 6.32178 97.0477 6.47546C97.4445 6.62913 97.8333 6.82603 98.214 7.0661C98.5948 7.30622 98.934 7.57035 99.2316 7.85847C99.5292 8.1466 99.7692 8.51477 99.9516 8.96298C100.134 9.41118 100.225 9.9138 100.225 10.4708C100.225 11.2584 100.009 11.9723 99.5772 12.6126C99.1452 13.2529 98.5757 13.7443 97.8685 14.0869C97.1613 14.4294 96.3949 14.6007 95.5694 14.6007C93.7454 14.6007 92.0847 13.9124 90.5871 12.5358Z" fill="#E7E2DD"/>
<path d="M103.777 14.4085H101.003L106.897 0.635986H108.769L114.663 14.4085H111.898L110.593 11.364H105.073L103.777 14.4085ZM107.828 4.92915L106.071 9.00136H109.575L107.828 4.92915Z" fill="#E7E2DD"/>
<path d="M119.857 8.30991H118.887V14.4086H116.238V0.636108H121.249C122.503 0.636108 123.505 0.978648 124.253 1.66377C124.637 2.02874 124.937 2.45294 125.151 2.93634C125.365 3.41974 125.473 3.93359 125.473 4.47781C125.473 5.02203 125.365 5.53589 125.151 6.01929C124.937 6.50269 124.637 6.92689 124.253 7.29185C123.863 7.66322 123.405 7.93213 122.881 8.09862L128.036 14.4086H124.753L119.857 8.30991ZM118.887 5.94728H121.095C121.729 5.94728 122.173 5.80962 122.429 5.53431C122.692 5.25259 122.823 4.90685 122.823 4.49703C122.823 4.06805 122.692 3.71269 122.429 3.43097C122.161 3.14285 121.716 2.99878 121.095 2.99878H118.887V5.94728Z" fill="#E7E2DD"/>
<path d="M128.324 12.5358L130.061 10.7302C130.471 11.1848 130.962 11.5513 131.535 11.8298C132.107 12.1084 132.698 12.2476 133.306 12.2476C133.895 12.2476 134.376 12.0828 134.751 11.753C135.125 11.4233 135.312 11.0087 135.312 10.5093C135.312 10.1763 135.223 9.88181 135.043 9.62568C134.864 9.36958 134.61 9.15189 134.28 8.97259C133.951 8.79328 133.613 8.63483 133.267 8.49717C132.922 8.35952 132.52 8.19465 132.063 8.00254C131.605 7.81042 131.22 7.62476 130.906 7.4455C129.607 6.68354 128.957 5.63991 128.957 4.31451C128.957 3.71903 129.087 3.17319 129.346 2.67697C129.605 2.18076 129.948 1.77257 130.373 1.45241C130.799 1.13225 131.282 0.884145 131.823 0.708094C132.363 0.531995 132.922 0.44397 133.498 0.44397C134.995 0.44397 136.327 0.87616 137.491 1.74054L136.109 3.70942C135.827 3.44692 135.471 3.2308 135.039 3.06111C134.607 2.89142 134.173 2.8066 133.738 2.8066C133.475 2.8066 133.223 2.83543 132.979 2.89305C132.736 2.95066 132.511 3.03553 132.303 3.14756C132.095 3.25959 131.927 3.41489 131.799 3.61336C131.671 3.81184 131.607 4.03915 131.607 4.29528C131.607 4.55778 131.698 4.79633 131.88 5.01082C132.063 5.22531 132.303 5.40299 132.6 5.54385C132.898 5.68471 133.237 5.83676 133.618 6.00004C133.999 6.16333 134.387 6.32178 134.784 6.47546C135.181 6.62913 135.57 6.82603 135.951 7.0661C136.331 7.30618 136.671 7.57035 136.968 7.85847C137.266 8.1466 137.506 8.51477 137.688 8.96298C137.871 9.41118 137.962 9.9138 137.962 10.4708C137.962 11.2584 137.746 11.9723 137.314 12.6126C136.882 13.2529 136.312 13.7443 135.605 14.0869C134.898 14.4294 134.131 14.6007 133.306 14.6007C131.482 14.6007 129.821 13.9124 128.324 12.5358Z" fill="#E7E2DD"/>
<defs>
<linearGradient id="paint0_linear_9_92" x1="12.0701" y1="22.4287" x2="31.8994" y2="22.4287" gradientUnits="userSpaceOnUse">
<stop offset="0.1895" stop-color="#BB9D5E"/>
<stop offset="0.4977" stop-color="#E1D4BA"/>
<stop offset="0.8235" stop-color="#BB9D5E"/>
</linearGradient>
</defs>
</svg>
