<svg width="200" height="54" viewBox="0 0 200 54" fill="none" xmlns="http://www.w3.org/2000/svg">
<g clipPath="url(#clip0_9_21)">
<path d="M73.673 14.202C73.7283 15.0001 73.6129 15.8009 73.3343 16.5509C73.0557 17.3009 72.6205 17.9829 72.0575 18.5514C70.7559 19.6418 69.0826 20.1858 67.3886 20.0692H64.131V8.53007H67.7436C69.3408 8.42719 70.9138 8.96005 72.1196 10.0124C72.6585 10.5623 73.0753 11.2197 73.343 11.9416C73.6107 12.6635 73.7231 13.4337 73.673 14.202ZM71.1432 14.2641C71.1432 11.7965 70.0514 10.5627 67.8679 10.5627H66.572V18.0543H67.6194C69.9864 18.0543 71.1699 16.7909 71.1699 14.2641H71.1432ZM80.774 15.6577V20.0958H78.3241V8.5567H81.6616C82.8835 8.47496 84.0996 8.78597 85.1322 9.44432C85.5168 9.75202 85.8205 10.1489 86.017 10.6006C86.2134 11.0523 86.2967 11.5451 86.2595 12.0362C86.2636 12.6719 86.068 13.2928 85.7003 13.8114C85.3091 14.375 84.7679 14.8177 84.1381 15.0896C85.866 17.6756 86.9933 19.3473 87.5199 20.1047H84.8571L82.1143 15.6666L80.774 15.6577ZM80.774 13.6783H81.564C82.1527 13.7276 82.7427 13.6009 83.2593 13.3144C83.4466 13.177 83.5956 12.9939 83.6919 12.7826C83.7883 12.5712 83.8288 12.3387 83.8097 12.1072C83.8308 11.8809 83.79 11.6531 83.6915 11.4482C83.5929 11.2433 83.4405 11.0692 83.2505 10.9444C82.7007 10.6713 82.0873 10.5517 81.4752 10.5982H80.774V13.6783ZM99.0502 20.0781L98.2158 17.3353H94.0174L93.2007 20.0781H90.5379L94.6032 8.53895H97.6389L101.713 20.0781H99.0502ZM97.6389 15.2938C96.8637 12.8084 96.4317 11.403 96.3429 11.0776C96.2542 10.7521 96.1832 10.4947 96.1299 10.3053C95.9642 10.9799 95.4672 12.6427 94.6387 15.2938H97.6389ZM108.566 15.5246H112.471V13.5363H108.566V10.5716H112.729V8.56557H106.133V20.1047H108.539L108.566 15.5246ZM123.025 10.5982H126.149V8.56557H117.468V10.5982H120.584V20.0781H123.025V10.5982ZM136.171 13.6606L140.192 8.56557H137.529L134.413 12.48L133.446 13.8381V8.56557H131.014V20.1047H133.446V15.9773L134.484 15.2316L137.493 20.087H140.245L136.171 13.6606ZM145.429 20.0781H147.87V8.53895H145.429V20.0781ZM164.166 8.53895H161.965V13.989C161.965 14.6103 162.01 15.6666 162.089 17.1578H162.036L157.021 8.56557H153.941V20.1047H156.125V14.6902C156.125 14.0334 156.071 12.9149 155.974 11.3971H156.045L161.042 20.1047H164.149L164.166 8.53895ZM173.877 15.64H176.061V18.0454C175.55 18.1508 175.029 18.2043 174.507 18.2052C174.084 18.229 173.66 18.1512 173.273 17.9783C172.885 17.8054 172.545 17.5423 172.279 17.2111C171.714 16.3698 171.445 15.364 171.516 14.3529C171.465 13.3316 171.797 12.328 172.448 11.5391C172.767 11.1888 173.159 10.9127 173.596 10.7302C174.033 10.5477 174.505 10.4633 174.978 10.4828C175.903 10.4732 176.818 10.6895 177.641 11.1131L178.457 9.16028C177.379 8.69251 176.216 8.45084 175.04 8.45018C174.234 8.4005 173.426 8.51231 172.664 8.77905C171.902 9.0458 171.201 9.4621 170.602 10.0035C170.054 10.5816 169.63 11.2657 169.357 12.0138C169.084 12.7618 168.967 13.5579 169.013 14.3529C168.906 15.9366 169.393 17.5034 170.38 18.7466C170.894 19.2747 171.517 19.6847 172.205 19.9483C172.893 20.2119 173.63 20.3228 174.365 20.2734C175.034 20.2756 175.701 20.2282 176.362 20.1313C177.073 20.02 177.774 19.8508 178.457 19.6254V13.6162H173.886L173.877 15.64ZM191.195 16.8649C191.216 16.1814 191.003 15.5113 190.591 14.9654C189.98 14.2886 189.225 13.7578 188.381 13.412C187.852 13.1729 187.337 12.9062 186.836 12.6132C186.65 12.4867 186.487 12.3273 186.357 12.1427C186.234 11.9173 186.189 11.6574 186.229 11.4037C186.269 11.15 186.392 10.9167 186.579 10.7403C186.884 10.5089 187.262 10.3954 187.644 10.4207C188.042 10.4203 188.438 10.468 188.825 10.5627C189.344 10.7081 189.854 10.886 190.351 11.0953L191.141 9.19579C190.589 8.95464 190.02 8.75583 189.437 8.60108C188.878 8.45766 188.302 8.38608 187.724 8.38805C186.696 8.33337 185.682 8.64821 184.866 9.27568C184.521 9.57112 184.248 9.94139 184.068 10.3583C183.888 10.7751 183.806 11.2276 183.827 11.6811C183.817 12.1696 183.923 12.6535 184.138 13.0925C184.363 13.5011 184.664 13.8627 185.026 14.1576C185.497 14.5312 186.013 14.8443 186.561 15.0896C187.074 15.3187 187.572 15.5796 188.053 15.8707C188.27 16.0018 188.46 16.1736 188.612 16.3767C188.736 16.5534 188.801 16.7645 188.798 16.9803C188.805 17.1517 188.769 17.3221 188.695 17.4768C188.621 17.6314 188.51 17.7657 188.372 17.8679C188.001 18.0927 187.571 18.198 187.138 18.1697C186.64 18.1618 186.145 18.0902 185.665 17.9567C184.989 17.7673 184.33 17.5239 183.694 17.2288V19.5278C184.713 20.0057 185.827 20.2426 186.952 20.2201C188.062 20.2926 189.162 19.979 190.067 19.3325C190.439 19.0416 190.736 18.6655 190.932 18.2361C191.128 17.8067 191.218 17.3364 191.195 16.8649Z" fill="white"/>
<path d="M53.444 0H0V53.444H53.444V0Z" fill="#53D337"/>
<path d="M43.5647 9.15142C42.9155 9.44819 42.3598 9.91684 41.9577 10.5067C41.5556 11.0965 41.3225 11.785 41.2835 12.4978C40.7545 12.1242 40.1408 11.888 39.4978 11.8105C38.8547 11.733 38.2025 11.8167 37.5999 12.054C37.6472 12.2179 37.7066 12.3781 37.7774 12.5333C38.0059 13.0357 38.3385 13.4838 38.7532 13.848C39.1678 14.2122 39.6552 14.4841 40.1829 14.6458C39.597 15.5543 38.8256 16.3287 37.9194 16.9182C37.5213 17.1703 37.0669 17.3197 36.5968 17.3531C36.0069 17.4239 35.4093 17.3152 34.882 17.0413C34.3548 16.7674 33.9223 16.3409 33.6411 15.8175C33.2852 16.4561 32.706 16.9408 32.0146 17.1783C31.3232 17.4159 30.5685 17.3896 29.8953 17.1046C29.7177 16.998 29.5402 16.8915 29.3716 16.7673C28.348 16.0616 27.5154 15.1131 26.9484 14.0067C26.7135 13.5601 26.5261 13.09 26.3891 12.6043H26.4602C27.0581 12.5379 27.6325 12.3333 28.1378 12.0067C28.6431 11.6801 29.0655 11.2405 29.3716 10.7225C29.4423 10.615 29.5046 10.5023 29.558 10.3852L29.2296 10.1633C28.7693 9.88515 28.2561 9.70597 27.7227 9.6372C27.1894 9.56842 26.6475 9.61157 26.1317 9.76389C26.0103 9.79594 25.8916 9.83749 25.7767 9.88815C25.7356 9.06869 25.5119 8.26876 25.1218 7.54694C24.7317 6.82511 24.1851 6.19964 23.5221 5.71631C23.3785 5.62605 23.2303 5.5431 23.0783 5.46777H22.9629L22.883 5.56541C22.7841 5.69153 22.6951 5.82507 22.6167 5.96484C22.2822 6.70409 22.118 7.50908 22.1365 8.3203C22.1549 9.13152 22.3555 9.92823 22.7232 10.6515L22.3593 10.7136C21.8326 10.829 21.3354 11.0517 20.8986 11.3679C20.4618 11.684 20.0949 12.0868 19.8207 12.551C19.7546 12.6627 19.6953 12.7783 19.6432 12.8972C19.7441 12.9763 19.8509 13.0475 19.9627 13.1102C20.4813 13.4163 21.0638 13.5981 21.6644 13.6412C22.265 13.6843 22.8675 13.5876 23.4245 13.3588H23.4866C23.599 13.8485 23.6644 14.3478 23.6819 14.85C23.7071 15.9371 23.5014 17.0171 23.0783 18.0188C23.0756 18.0572 23.0756 18.0958 23.0783 18.1342L22.9452 18.4271C22.8268 18.652 22.7025 18.8739 22.5724 19.0928C22.2389 19.4881 21.8117 19.7933 21.3297 19.9805C20.896 20.148 20.4291 20.2111 19.9665 20.1649C19.5039 20.1186 19.0587 19.9642 18.6668 19.7142C18.6669 20.3101 18.4875 20.8923 18.1518 21.3847C17.8161 21.8772 17.3398 22.257 16.785 22.4747C16.5244 22.5795 16.2487 22.6424 15.9684 22.6611C14.7302 22.6593 13.5113 22.3546 12.4179 21.7735C12.804 21.3788 13.1012 20.9061 13.2895 20.3871C13.4778 19.8681 13.5529 19.3148 13.5097 18.7644C13.4996 18.5442 13.4759 18.3248 13.4387 18.1076C12.2303 18.4107 11.164 19.1226 10.4207 20.1225C9.67514 19.4745 8.30819 18.3472 6.81698 18.4449C6.47179 18.5005 6.13486 18.5989 5.81396 18.7378C7.48527 19.9931 9.07717 21.3508 10.5805 22.8031C11.6279 23.815 12.6487 24.889 13.6162 25.9986C14.9565 27.5342 17.2555 30.632 17.2555 30.632C17.8541 31.1895 18.648 31.4892 19.4657 31.4664C19.5152 31.4584 19.5607 31.4339 19.5945 31.3968C19.6284 31.3598 19.6487 31.3123 19.6521 31.2622C19.6521 31.1734 19.5189 31.1291 19.4479 31.0935C19.174 30.998 18.9287 30.8348 18.7347 30.6191C18.5408 30.4034 18.4044 30.1422 18.3384 29.8597C17.9034 28.5106 21.951 26.0607 27.8715 24.534C33.7919 23.0073 38.523 23.2203 38.8248 24.6139C38.8976 24.8939 38.9009 25.1874 38.8344 25.469C38.7679 25.7505 38.6336 26.0116 38.4431 26.2294C38.3987 26.2915 38.3011 26.4069 38.3455 26.469C38.3715 26.5138 38.4123 26.5481 38.461 26.5659C38.5096 26.5838 38.563 26.584 38.6118 26.5667C39.3379 26.2008 39.8899 25.5626 40.1474 24.7914C40.1474 24.7914 40.7864 20.948 41.2214 18.9508C41.5321 17.5217 41.9137 16.1015 42.3487 14.708C42.9648 12.7217 43.6999 10.7742 44.55 8.87626C44.2105 8.92723 43.8792 9.02273 43.5647 9.1603" fill="white"/>
<path d="M22.5723 27.5164C25.7729 26.1483 29.144 25.2197 32.5936 24.7559C32.5936 24.7559 39.313 25.7322 39.313 33.6321C39.313 41.532 33.7298 45.7305 26.0607 45.7305C18.3916 45.7305 14.3884 42.3664 14.3884 38.7715C14.3884 35.1766 16.9625 34.6174 18.1608 34.6174C18.6376 34.6512 19.103 34.7785 19.5306 34.9922C19.9581 35.2058 20.3394 35.5016 20.6526 35.8627C20.9658 36.2237 21.2048 36.6429 21.356 37.0963C21.5072 37.5497 21.5677 38.0284 21.5338 38.5052C21.5338 38.5052 19.3769 37.9815 19.3769 39.8455C19.3769 41.7095 21.9244 42.8812 25.4305 42.8812C28.9366 42.8812 33.8718 41.3456 33.8718 34.5109C33.8718 27.2235 30.4988 26.895 28.1555 26.895V39.4017C28.1739 39.7094 28.3127 39.9975 28.542 40.2035C28.7713 40.4095 29.0725 40.5169 29.3804 40.5024C29.3804 40.5024 28.1466 41.5409 25.0932 41.5409C22.0398 41.5409 21.1699 40.5645 21.1699 40.5645C21.1699 40.5645 22.6167 40.5645 22.6167 39.2952C22.6167 38.0259 22.5723 27.5164 22.5723 27.5164Z" fill="white"/>
<path d="M146.618 28.626H154.758L156.799 30.6586V34.8038L155.113 36.4903L156.799 38.1679V42.7303L154.758 44.7719H146.618V28.626ZM152.769 35.2743L153.542 34.502V31.7859L152.84 31.0847H149.849V35.2743H152.769ZM152.867 42.2865L153.542 41.6119V38.4964L152.769 37.7241H149.849V42.2865H152.867ZM160.758 42.6416V30.7563L162.888 28.626H168.898L171.028 30.7563V42.6061L168.898 44.7364H162.888L160.758 42.6416ZM166.971 42.1978L167.744 41.4255V31.9546L166.971 31.1823H164.726L163.953 31.9546V41.4255L164.726 42.1978H166.971ZM174.96 42.6416V30.7563L177.09 28.626H183.108L185.239 30.7563V42.6061L183.108 44.7364H177.09L174.96 42.6416ZM181.173 42.1978L181.946 41.4255V31.9546L181.173 31.1823H178.928L178.155 31.9546V41.4255L178.928 42.1978H181.173ZM196.476 44.7719H199.92L196.458 35.3187L199.751 28.626H196.334L192.429 37.0673V28.626H189.18V44.7719H192.429V41.5853L194.257 38.0348L196.476 44.7719ZM66.1104 44.7719H72.0575L74.1345 42.686V37.0229L72.3593 35.2477H67.9744L67.4596 34.7328V31.8569L68.1342 31.1734H70.2645L70.9391 31.8569V33.4458H74.1967V30.6853L72.1374 28.626H66.2879L64.202 30.703V36.2507L65.9772 38.0259H70.4775L70.9923 38.5674V41.5409L70.3089 42.2155H68.0632L67.3886 41.5409V39.9432H64.131V42.7037L66.1104 44.7719ZM78.2176 28.626H86.2063L88.3188 30.7563V36.8631L86.2063 38.9934H81.4752V44.7719H78.2176V28.626ZM84.431 36.5613L85.1322 35.8335V31.7859L84.3955 31.0669H81.4752V36.5702L84.431 36.5613ZM92.0202 42.6061V30.7563L94.1505 28.626H100.16L102.29 30.7563V42.6061L100.16 44.7364H94.1505L92.0202 42.6061ZM98.2336 42.1623L99.0058 41.39V31.9546L98.2336 31.1823H95.9879L95.2157 31.9546V41.4255L95.9879 42.1978L98.2336 42.1623ZM106.391 28.5905H114.628L116.687 30.6675V36.0731L114.912 37.8484L116.927 44.7541H113.607L111.832 38.2745H109.631V44.7541H106.426L106.391 28.5905ZM112.729 35.8779L113.474 35.1323V31.7593L112.729 31.0669H109.64V35.9134L112.729 35.8779ZM122.945 44.7541H126.194V31.4397H129.593V28.626H119.545V31.4309H122.963L122.945 44.7541ZM134.6 44.7541H140.538L142.624 42.6682V37.0229L140.849 35.2477H136.357L135.842 34.7328V31.8569L136.526 31.1734H138.647L139.331 31.8569V33.4458H142.579V30.6853L140.52 28.626H134.671L132.594 30.703V36.2507L134.369 38.0259H138.86L139.375 38.5674V41.5409L138.7 42.2155H136.455L135.807 41.5409V39.9432H132.558V42.7037L134.6 44.7541Z" fill="#53D337"/>
</g>
<defs>
<clipPath id="clip0_9_21">
<rect width="200" height="53.444" fill="white"/>
</clipPath>
</defs>
</svg>
