<svg width="200" height="28" viewBox="0 0 200 28" fill="none" xmlns="http://www.w3.org/2000/svg">
<g clipPath="url(#clip0_717_383)">
<mask id="mask0_717_383" style="mask-type:luminance" maskUnits="userSpaceOnUse" x="0" y="0" width="200" height="28">
<path d="M200 0.196304H0V27.5936H200V0.196304Z" fill="white"/>
</mask>
<g mask="url(#mask0_717_383)">
<path d="M48.4477 11.0786C46.8748 11.0786 31.5906 11.0727 28.486 11.0727C27.8203 15.4357 30.0029 17.4095 33.0987 17.4095C34.7835 17.4095 45.3933 17.4035 45.3933 17.4035L45.0102 20.538H27.3255L26.4359 27.7939C26.4359 27.7939 45.6877 27.7998 46.4685 27.7939C47.1104 27.7468 51.6172 27.626 53.1487 23.9406C53.6466 22.7446 54.0853 18.4552 54.209 17.5567C54.919 12.3277 51.299 11.0816 48.4477 11.0816V11.0786Z" fill="#F5FBFF"/>
<path d="M99.1311 27.7939L108.221 27.788L110.274 11.0757L101.187 11.0698L99.1311 27.7939Z" fill="#F5FBFF"/>
<path d="M25.8674 17.4095L26.6451 11.0727H2.35051L0.294546 27.7939H24.5921L25.4875 20.538H10.2739L10.6568 17.4095H25.8674Z" fill="#F5FBFF"/>
<path d="M105.04 0.490906H85.2196L84.2798 8.15329H110.624C110.624 8.15329 110.657 7.87638 110.772 6.97493C111.417 1.9462 108.174 0.490906 105.04 0.490906Z" fill="#F5FBFF"/>
<path d="M56.7746 11.0727L54.7217 27.7939H63.8055L65.0869 17.4095H76.4978C79.7319 17.4095 81.4728 15.6684 81.7969 13.3323C81.9589 12.1539 82.0767 11.0727 82.0767 11.0727H56.7746Z" fill="#F5FBFF"/>
<path d="M82.6098 6.72745C83.0133 3.45746 81.6231 0.490902 76.5683 0.490902C76.5683 0.490902 38.5214 0.490902 36.3505 0.490902C32.2297 0.48501 29.5052 2.65617 29.1193 5.9026C28.9779 7.09865 28.8424 8.15328 28.8424 8.15328H82.4301C82.4301 8.15328 82.5303 7.36084 82.6098 6.72745Z" fill="#F5FBFF"/>
<path d="M81.8673 27.7939L90.9542 27.788L93.0102 11.0757L83.9174 11.0698L81.8673 27.7939Z" fill="#F5FBFF"/>
<path d="M27.944 0.490906H3.64653L2.70692 8.15329H27.0074L27.944 0.490906Z" fill="#F5FBFF"/>
<path d="M138.931 0.490891H118.836L115.529 27.788C115.529 27.788 134.931 27.7939 135.717 27.788C136.362 27.7408 140.819 27.6966 142.389 23.9966C142.898 22.7946 143.29 19.448 143.42 18.5436C143.738 16.3489 142.566 15.0792 141.396 14.3398C141.137 14.1777 141.199 13.783 141.494 13.7064C142.728 13.3882 143.891 12.7313 144.209 11.332C144.433 10.348 144.648 8.18569 144.801 6.98373C145.496 1.93735 142.106 0.493836 138.931 0.493836V0.490891ZM138.153 17.6893L137.776 20.7177C137.614 22.1288 136.527 23.0126 135.025 23.1128H121.511L122.289 16.5875H137.328C138.339 16.5875 138.156 17.6893 138.156 17.6893H138.153ZM139.635 6.29735L139.258 9.32577C139.096 10.7369 138.009 11.6206 136.506 11.7208H122.993L123.77 5.19555H138.81C139.909 5.19555 139.638 6.29735 139.638 6.29735H139.635Z" fill="#20F4CA"/>
<path d="M172.18 5.19555L172.736 0.50267H148.825L145.467 27.788H169.382L169.938 23.0656L151.529 23.1275L152.421 16.5875H167.915L168.48 11.7856H153.013L153.894 5.19555H172.18Z" fill="#20F4CA"/>
<path d="M200.121 0.50267H175.62L175.058 5.22502H184.604L181.809 27.788H187.22L190.044 5.22502H199.564L200.121 0.50267Z" fill="#20F4CA"/>
</g>
</g>
<defs>
<clipPath id="clip0_717_383">
<rect width="200" height="27.3973" fill="white" transform="translate(0 0.196304)"/>
</clipPath>
</defs>
</svg>
