<svg width="200" height="54" viewBox="0 0 200 54" fill="none" xmlns="http://www.w3.org/2000/svg">
<g clipPath="url(#clip0_102_5)">
<path d="M65.5757 8.48896C65.5757 8.30849 65.7017 8.18256 65.8815 8.18256H79.6047C79.7663 8.18256 79.9104 8.36236 79.8384 8.52465L78.5973 11.924C78.5252 12.1213 78.3993 12.1933 78.1838 12.1933H69.802V15.8627H76.7986C76.9602 15.8627 77.1044 16.0425 77.0323 16.2041L75.8276 19.5314C75.7555 19.7294 75.6296 19.8196 75.4134 19.8196H69.802V25.9879C69.8039 26.0286 69.7973 26.0693 69.7826 26.1073C69.768 26.1453 69.7455 26.1798 69.7168 26.2086C69.688 26.2375 69.6535 26.26 69.6156 26.2747C69.5776 26.2895 69.537 26.2962 69.4963 26.2943H65.8633C65.8226 26.2962 65.7821 26.2895 65.7442 26.2748C65.7063 26.2601 65.6718 26.2376 65.6431 26.2088C65.6143 26.1801 65.5918 26.1457 65.5771 26.1077C65.5624 26.0698 65.5557 26.0293 65.5576 25.9886V8.48829L65.5757 8.48896ZM83.9926 8.47078C84.0646 8.2728 84.1906 8.20074 84.4067 8.20074H89.2626C89.4606 8.20074 89.6047 8.29031 89.6761 8.4701L96.0256 25.9886C96.0794 26.1502 95.9535 26.33 95.7912 26.33H91.9427C91.7448 26.33 91.6188 26.2405 91.5468 26.0425L90.3239 22.5172H83.2916L82.0687 26.0425C82.0148 26.2405 81.8707 26.33 81.6727 26.33H77.8781C77.7158 26.33 77.5717 26.1502 77.6438 25.9886L83.9926 8.47078ZM88.9751 18.5422L86.8168 12.2836L84.6586 18.5422H88.9926H88.9751ZM97.806 8.48829C97.806 8.30849 97.932 8.18256 98.1118 8.18256H102.338C102.554 8.18256 102.68 8.25462 102.806 8.45192L109.118 19.19V8.48829C109.118 8.30849 109.244 8.18256 109.425 8.18256H112.986C113.166 8.18256 113.292 8.30849 113.292 8.48829V26.0068C113.293 26.0474 113.287 26.088 113.272 26.1259C113.257 26.1638 113.235 26.1983 113.206 26.227C113.177 26.2558 113.143 26.2782 113.105 26.293C113.067 26.3077 113.026 26.3143 112.986 26.3125H108.813C108.597 26.3125 108.471 26.2405 108.345 26.0425L101.997 15.2331V26.0061C101.999 26.0468 101.992 26.0875 101.977 26.1255C101.963 26.1634 101.94 26.198 101.911 26.2268C101.883 26.2556 101.848 26.2782 101.81 26.2929C101.772 26.3077 101.732 26.3144 101.691 26.3125H98.13C98.0893 26.3144 98.0486 26.3078 98.0106 26.2932C97.9726 26.2785 97.9381 26.2561 97.9093 26.2273C97.8804 26.1985 97.8579 26.164 97.8432 26.1261C97.8284 26.0881 97.8217 26.0475 97.8236 26.0068V8.48829H97.806ZM123.579 22.3018C126.457 22.3018 128.633 20.1253 128.633 17.2472C128.633 14.3698 126.457 12.1933 123.579 12.1933H117.141C117.1 12.1953 117.059 12.1887 117.021 12.174C116.984 12.1593 116.949 12.1368 116.92 12.1081C116.891 12.0793 116.869 12.0448 116.854 12.0068C116.84 11.9689 116.833 11.9283 116.835 11.8876V8.47078C116.835 8.29031 116.96 8.16505 117.141 8.16505H123.579C128.885 8.16505 132.86 12.0499 132.86 17.229C132.86 22.4095 128.885 26.2943 123.579 26.2943H117.141C117.1 26.2963 117.059 26.2897 117.021 26.275C116.984 26.2603 116.949 26.2379 116.92 26.2091C116.891 26.1803 116.869 26.1458 116.854 26.1079C116.84 26.0699 116.833 26.0293 116.835 25.9886V17.5166C116.835 16.3832 117.195 15.5024 117.842 14.8546C118.417 14.2789 119.335 13.8836 120.144 13.8836H120.774C120.954 13.8836 121.079 14.0095 121.079 14.1893V22.2829H123.597L123.579 22.3004V22.3018ZM135.468 19.1536V8.48829C135.468 8.30849 135.594 8.18256 135.774 8.18256H139.407C139.587 8.18256 139.712 8.30849 139.712 8.48829V19.1536C139.712 21.2041 141.151 22.6432 143.201 22.6432C145.252 22.6432 146.691 21.2223 146.691 19.1543V8.48761C146.691 8.30782 146.817 8.18189 146.997 8.18189H150.63C150.809 8.18189 150.935 8.30782 150.935 8.48761V19.1529C150.935 23.596 147.788 26.6533 143.22 26.6533C138.651 26.6533 135.504 23.6135 135.504 19.1529L135.468 19.1536ZM166.727 15.1974C166.906 15.1974 167.032 15.3233 167.032 15.5031V18.8661C167.034 18.9067 167.027 18.9473 167.013 18.9852C166.998 19.0231 166.976 19.0575 166.947 19.0863C166.918 19.115 166.884 19.1375 166.846 19.1522C166.808 19.1669 166.767 19.1736 166.727 19.1718H158.705V22.3193H167.195C167.374 22.3193 167.5 22.4452 167.5 22.625V26.0425C167.502 26.0831 167.495 26.1237 167.481 26.1616C167.466 26.1995 167.444 26.234 167.415 26.2627C167.386 26.2915 167.352 26.3139 167.314 26.3287C167.276 26.3434 167.235 26.35 167.195 26.3482H154.766C154.726 26.35 154.685 26.3434 154.647 26.3287C154.609 26.3139 154.575 26.2915 154.546 26.2627C154.517 26.234 154.495 26.1995 154.48 26.1616C154.465 26.1237 154.459 26.0831 154.461 26.0425V8.48829C154.461 8.30849 154.587 8.18256 154.766 8.18256H167.195C167.374 8.18256 167.5 8.30849 167.5 8.48829V11.9058C167.502 11.9464 167.495 11.987 167.481 12.0249C167.466 12.0628 167.444 12.0973 167.415 12.126C167.386 12.1548 167.352 12.1772 167.314 12.1919C167.276 12.2067 167.235 12.2133 167.195 12.2115H158.705V15.2149H166.727V15.1974ZM175.288 22.3018H183.634C183.813 22.3018 183.939 22.4277 183.939 22.6075V26.0243C183.941 26.0649 183.935 26.1055 183.92 26.1434C183.905 26.1813 183.883 26.2158 183.854 26.2445C183.825 26.2733 183.791 26.2957 183.753 26.3105C183.715 26.3252 183.674 26.3319 183.634 26.33H171.349C171.308 26.3319 171.268 26.3252 171.23 26.3105C171.192 26.2957 171.157 26.2733 171.129 26.2445C171.1 26.2158 171.077 26.1813 171.063 26.1434C171.048 26.1055 171.041 26.0649 171.043 26.0243V8.48896C171.043 8.30849 171.169 8.18256 171.349 8.18256H174.982C175.162 8.18256 175.288 8.30849 175.288 8.48829V22.3018ZM70.4855 46.4735C66.6727 46.4735 65 44.3873 64.6404 42.031H66.8525C67.266 43.596 68.3097 44.423 70.468 44.423C72.3023 44.423 73.3454 43.7038 73.3454 42.4445C73.3454 41.1853 72.2303 40.9698 69.7124 40.4122C67.0687 39.8189 65 39.0816 65 36.5455C65 33.8472 67.3919 32.4263 70 32.4263C73.4175 32.4263 75 34.1893 75.3778 36.3475H73.1656C72.7697 35.2324 71.8525 34.4768 70.0182 34.4768C68.1838 34.4768 67.1946 35.2863 67.1946 36.4735C67.1946 37.4445 67.9677 37.7502 70.2337 38.2358C73.6693 38.9913 75.5576 39.7105 75.5576 42.3368C75.5576 45.3045 72.9138 46.4735 70.4855 46.4735ZM83.7589 41.6351H80.3778V46.2398H78.1838V32.6432H83.7589C86.7266 32.6432 88.5434 34.4236 88.5434 37.1038C88.5434 39.7839 86.7266 41.6183 83.7589 41.6183V41.6351ZM83.6693 34.7287H80.3778V39.5307H83.6693C85.4498 39.5307 86.2949 38.5058 86.2949 37.1213C86.2949 35.7361 85.468 34.7287 83.6693 34.7287ZM97.3919 46.4553C93.3993 46.4553 90.3421 43.4337 90.3421 39.423C90.3421 35.4122 93.3993 32.3906 97.3919 32.3906C101.385 32.3906 104.425 35.4122 104.442 39.423C104.407 43.4162 101.367 46.4553 97.3919 46.4553ZM97.3919 44.3691C100.126 44.3691 102.212 42.2829 102.212 39.4412C102.212 36.5994 100.144 34.495 97.3919 34.495C94.6404 34.495 92.5542 36.5994 92.5542 39.4412C92.5542 42.2829 94.6222 44.3691 97.3919 44.3691ZM109.37 41.1677V46.2398H107.176V32.6432H112.788C115.737 32.6432 117.41 34.3873 117.41 36.9415C117.41 39.1718 116.151 40.6465 113.993 41.0425L118.058 46.2223H115.36L111.475 41.1502H109.389L109.37 41.1677ZM112.554 39.225C114.353 39.225 115.198 38.2896 115.198 36.9772C115.198 35.664 114.353 34.7469 112.554 34.7469H109.37V39.225H112.554ZM125.108 34.7469V46.258H122.914V34.7475H118.777V32.6614H129.263V34.7475L125.108 34.7469ZM136.115 46.4735C132.302 46.4735 130.63 44.3873 130.27 42.031H132.482C132.896 43.596 133.939 44.423 136.097 44.423C137.932 44.423 138.975 43.7038 138.975 42.4445C138.975 41.1853 137.86 40.9698 135.342 40.4122C132.698 39.8189 130.63 39.0816 130.63 36.5455C130.63 33.8472 133.022 32.4263 135.63 32.4263C139.047 32.4263 140.63 34.1893 141.007 36.3475H138.795C138.399 35.2324 137.482 34.4768 135.648 34.4768C133.813 34.4768 132.824 35.2863 132.824 36.4735C132.824 37.4445 133.597 37.7502 135.863 38.2358C139.299 38.9913 141.187 39.7105 141.187 42.3368C141.187 45.3045 138.543 46.4735 136.115 46.4735ZM149.677 46.2398H143.813V32.6432H149.605C152.248 32.6432 153.741 33.9024 153.741 36.1321C153.741 37.5172 153.166 38.4169 151.943 38.9738C153.471 39.4418 154.191 40.7368 154.191 42.3913C154.191 44.7832 152.536 46.2405 149.694 46.2405L149.677 46.2398ZM146.007 34.7287V38.2358H149.353C150.954 38.2358 151.529 37.5886 151.529 36.4917C151.529 35.3044 150.9 34.7469 149.335 34.7469H146.007V34.7287ZM149.605 40.2506H146.007V44.1354H149.622C151.403 44.1354 151.978 43.3799 151.978 42.2108C151.978 40.9698 151.403 40.2506 149.605 40.2506ZM163.238 46.4553C159.245 46.4553 156.187 43.4337 156.187 39.423C156.187 35.4122 159.245 32.3906 163.238 32.3906C167.23 32.3906 170.27 35.4122 170.288 39.423C170.252 43.4162 167.213 46.4553 163.238 46.4553ZM163.238 44.3691C165.972 44.3691 168.058 42.2829 168.058 39.4412C168.058 36.5994 165.989 34.495 163.238 34.495C160.486 34.495 158.399 36.5994 158.399 39.4412C158.399 42.2829 160.468 44.3691 163.238 44.3691ZM179.514 46.4553C175.522 46.4553 172.464 43.4337 172.464 39.423C172.464 35.4122 175.522 32.3906 179.514 32.3906C183.508 32.3906 186.547 35.4122 186.565 39.423C186.529 43.4162 183.49 46.4553 179.514 46.4553ZM179.514 44.3691C182.248 44.3691 184.335 42.2829 184.335 39.4412C184.335 36.5994 182.267 34.495 179.514 34.495C176.763 34.495 174.677 36.5994 174.677 39.4412C174.677 42.2829 176.745 44.3691 179.514 44.3691ZM191.475 39.7469V46.2398H189.281V32.6432H191.475V38.8486L196.978 32.6432H199.731L193.867 39.262L200 46.2405H197.213L191.457 39.7475L191.475 39.7469Z" fill="white"/>
<path d="M11.3782 20.9834C14.882 19.3677 18.583 18.3801 22.2121 17.9489C22.6081 17.895 22.7697 18.1644 22.734 18.4708C22.266 21.2587 21.9603 24.1004 21.8343 26.9422C21.7987 27.2654 21.6364 27.4809 21.2593 27.5529C19.2444 27.9489 17.2842 28.5603 15.1077 29.5496C17.0505 32.9307 19.4242 36.0425 22.0141 38.6324C22.3199 38.9381 22.4822 39.262 22.5717 39.8014C23.2694 44.2069 24.4208 48.5284 26.0074 52.697C26.097 52.9307 26.097 53.093 25.971 53.2189C25.8276 53.3624 25.5939 53.3624 25.3778 53.2189C9.6404 43.6863 0.161616 26.528 0 8.52465C0 8.093 0.144108 7.76909 0.521886 7.57111C8.86667 2.87751 18.2552 0.628353 27.6801 0.826333C28.0936 0.826333 28.2552 1.20411 28.0936 1.5462C26.7987 4.24384 25.7017 6.99536 24.8559 9.74755C24.7663 10.0708 24.5502 10.2331 24.2088 10.2512C19.2426 10.5061 14.3572 11.6131 9.76633 13.524C10.0915 16.0516 10.6307 18.5471 11.3782 20.9834Z" fill="white"/>
<path d="M28.3455 9.65731C28.2552 9.98122 28.4714 10.2512 28.7771 10.2869H28.8128C33.7346 10.5422 38.5766 11.6372 43.1293 13.5246C41.6545 25.161 35.5758 35.3954 26.8707 42.2472C26.5825 42.4634 26.4929 42.7509 26.5825 43.1112C27.1939 45.8627 28.0391 48.7044 29.0828 51.5098C29.1046 51.583 29.1439 51.6497 29.1974 51.7041C29.2509 51.7585 29.3169 51.799 29.3896 51.8221C29.4623 51.8451 29.5396 51.85 29.6147 51.8363C29.6897 51.8226 29.7603 51.7908 29.8202 51.7435C44.1906 41.8701 52.7158 25.5752 52.8418 8.52465C52.8418 8.093 52.6801 7.76909 52.3199 7.57111C46.3313 4.22566 39.6222 1.97785 32.5178 1.1866C32.1764 1.15024 31.9064 1.25798 31.7623 1.56371C30.4673 4.08155 29.3347 6.77987 28.3455 9.65731Z" fill="white"/>
</g>
<defs>
<clipPath id="clip0_102_5">
<rect width="200" height="52.5253" fill="white" transform="translate(0 0.822968)"/>
</clipPath>
</defs>
</svg>
