<svg width="200" height="23" viewBox="0 0 200 23" fill="none" xmlns="http://www.w3.org/2000/svg">
<path d="M0 18.7741L2.38145 15.9831C3.8983 17.3331 5.91572 18.7741 8.24408 18.7741C11.1944 18.7741 12.241 17.3862 12.241 16.2485C12.241 11.698 1.08455 15.0578 1.08455 7.26119C1.08455 3.86345 3.51909 0.989014 8.7143 0.989014C10.9896 0.989014 13.371 2.55137 15.0244 3.74968L12.9918 6.65445C11.5508 5.1376 10.0719 4.34125 8.44127 4.34125C5.51375 4.34125 4.59606 5.48647 4.59606 7.07917C4.5733 11.5463 15.798 8.18647 15.798 15.8997C15.798 19.2595 13.4241 22.2856 8.21374 22.2856C5.29381 22.2856 1.57752 20.2682 0 18.7741Z" fill="white"/>
<path d="M18.4385 12.8584V0.989014H21.9804V12.7067C21.9804 16.4002 23.7551 18.0157 26.8267 18.0157C29.8983 18.0157 31.6503 16.1879 31.6503 12.7067V0.989014H35.1391V12.8584C35.1391 18.9789 32.0068 22.3083 26.7964 22.3083C21.586 22.3083 18.4385 18.9789 18.4385 12.8584Z" fill="white"/>
<path d="M48.2686 10.3722V14.3009H52.5764V18.093C51.3434 18.7471 49.947 19.0291 48.5568 18.9045C44.4233 18.9045 41.6248 16.0604 41.6248 11.7981C41.6248 7.53571 44.4233 4.41858 48.5871 4.41858C49.6049 4.40303 50.6138 4.60936 51.5437 5.02325C52.4737 5.43714 53.3023 6.04863 53.9719 6.81521L56.2472 4.41858C55.2848 3.28934 54.0776 2.39435 52.7174 1.80165C51.3572 1.20895 49.8798 0.934133 48.3975 0.998086C42.2846 0.998086 37.7795 5.54864 37.7795 11.7981C37.7795 18.0475 42.2467 22.598 48.3065 22.598C51.0747 22.598 54.9806 20.8992 57.0132 19.1244V10.3722H48.2686Z" fill="white"/>
<path d="M75.247 17.1435H65.3874L63.4459 22.005H59.6537L68.5652 0.989014H72.1602L81.0262 22.005H77.234L75.247 17.1435ZM73.8742 13.7154L70.3324 5.60782L66.8209 13.7154H73.8742Z" fill="white"/>
<path d="M96.4917 22.005L91.1827 14.4662C90.9302 14.4817 90.6769 14.4817 90.4243 14.4662H87.2996V21.9746H83.6667V0.989014H91.7667C96.9013 0.989014 100.056 3.43873 100.109 8.08787C100.109 11.1216 98.0313 12.9721 95.3768 14.087L101.33 21.9898L96.4917 22.005ZM91.5771 4.30333H87.3299V11.5084H91.5771C94.7549 11.5084 96.4083 10.166 96.4083 7.89068C96.4083 5.61541 94.7549 4.30333 91.5771 4.30333Z" fill="white"/>
<path d="M120.816 0.989014V21.9898H117.297V12.9873H107.657V21.9898H103.971V0.989014H107.657V9.65781H117.297V0.989014H120.816Z" fill="white"/>
<path d="M123.456 11.789C123.456 5.57748 127.855 0.989014 133.831 0.989014C139.808 0.989014 144.199 5.53956 144.199 11.789C144.199 18.0384 139.8 22.6269 133.831 22.6269C127.863 22.6269 123.456 17.9929 123.456 11.789ZM140.597 11.5463C140.597 7.3977 137.707 4.40951 133.831 4.40951C129.956 4.40951 127.059 7.3977 127.059 11.5463C127.059 15.6949 129.948 18.6907 133.831 18.6907C137.715 18.6907 140.597 15.6949 140.597 11.5463Z" fill="white"/>
<path d="M146.84 12.8432V0.989014H150.381V12.6915C150.381 16.3775 152.149 18.0005 155.228 18.0005C158.307 18.0005 160.051 16.1727 160.051 12.6915V0.989014H163.54V12.8432C163.54 18.9637 160.408 22.2932 155.197 22.2932C149.987 22.2932 146.84 18.9637 146.84 12.8432Z" fill="white"/>
<path d="M166.181 18.7665L168.562 15.9831C170.079 17.3331 172.096 18.7665 174.425 18.7665C177.375 18.7665 178.422 17.3862 178.422 16.2485C178.422 11.698 167.258 15.0578 167.258 7.25361C167.258 3.86345 169.7 0.989014 174.895 0.989014C177.17 0.989014 179.552 2.55137 181.205 3.74968L179.172 6.65445C177.731 5.1376 176.253 4.37917 174.622 4.37917C171.694 4.37917 170.777 5.5244 170.777 7.11709C170.777 11.5842 182.017 8.22439 182.017 15.9376C182.017 19.2974 179.643 22.3235 174.432 22.3235C171.49 22.2856 167.743 20.2682 166.181 18.7665Z" fill="white"/>
<path d="M200 18.721V21.9898H184.657V0.989014H199.659V4.25782H188.631V9.71849H198.491V12.9342H188.631V18.721H200Z" fill="white"/>
</svg>
