<svg width="200" height="45" viewBox="0 0 200 45" fill="none" xmlns="http://www.w3.org/2000/svg">
<path d="M110.113 34.4995C113.805 34.4995 115.732 33.2523 115.732 30.646C115.732 28.0956 113.745 26.6823 109.891 26.6823C108.462 26.6823 106.754 26.796 104.882 27.0793V18.4733C106.421 18.6482 107.856 18.7007 109.287 18.7007C113.253 18.7007 115.232 17.5112 115.232 14.8C115.232 12.1412 113.421 10.8993 109.677 10.8993C107.25 10.8993 104.173 11.5814 100.378 12.7709V3.79576C103.745 2.60281 107.814 2.03957 112.6 2.03957C123.01 2.03957 129.01 6.62597 129.01 13.8222C129.01 18.2406 126.207 21.4662 121.301 22.5454C126.754 23.6824 129.557 26.796 129.557 31.5538C129.557 39.0229 123.455 43.3784 111.779 43.3784C107.865 43.3784 104.019 42.8186 100.053 41.8566V32.6208C103.968 33.8103 107.267 34.4925 110.138 34.4925L110.113 34.4995ZM153.556 16.7696C161.761 16.7696 167.21 21.9227 167.21 29.5125C167.21 37.6707 160.988 43.3347 151.188 43.3347C139.626 43.3347 132.19 35.9146 132.19 23.7384C132.19 9.86723 140.07 2.04831 154.275 2.04831C157.318 2.04831 160.566 2.39815 163.916 3.13282V12.1412C160.839 11.1791 157.865 10.7243 154.72 10.7243C148.446 10.7243 145.523 13.3306 145.369 19.2254C147.694 17.4238 150.224 16.7941 153.574 16.7941L153.556 16.7696ZM154.711 29.2344C154.711 25.9459 152.896 23.8468 150.253 23.8468C147.61 23.8468 145.846 25.8864 145.846 29.2344C145.846 32.5159 147.61 34.5554 150.253 34.5554C152.95 34.5554 154.711 32.5159 154.711 29.2344ZM171.287 3.0611H198.101V12.4648H183.827V18.4121C184.973 18.3543 185.759 18.2984 186.015 18.2984C194.87 18.2984 199.674 22.8988 199.674 30.6477C199.674 38.6416 193.827 43.3994 182.443 43.3994C178.477 43.3994 174.562 42.7872 170.597 41.7726V32.8167C173.622 33.6738 176.272 34.0761 178.528 34.0761C183.144 34.0761 185.571 32.4844 185.571 29.5457C185.571 26.2712 183.041 24.627 177.862 24.627C175.656 24.627 173.508 25.024 171.25 25.589V3.0611H171.287Z" fill="#FFE040"/>
<path d="M0 0H13.5897V16.6926C15.5214 13.9778 18.1709 12.7079 21.7607 12.7079C29.6615 12.7079 34.1368 18.3666 34.1368 28.4192C34.1368 38.0101 29.6068 43.73 22.094 43.73C17.5094 43.73 14.4154 41.9983 12.6496 38.3005V43.3242H0V0ZM13.2 28.1271C13.2 32.5229 14.1402 34.6586 16.5709 34.6586C18.947 34.6586 19.9949 32.5246 19.9949 28.1289C19.9949 23.7559 19 21.6044 16.5709 21.6044C14.1402 21.6044 13.2 23.7559 13.2 28.1289V28.1271ZM68.8752 30.9083H50.0444C50.3744 34.1496 52.8068 35.6837 57.3897 35.6837C60.5932 35.6837 63.9077 35.0592 67.1077 33.8085V41.3651C63.9624 42.6717 59.6547 43.4116 54.6291 43.4116C43.0291 43.4116 36.788 37.7302 36.788 27.7301C36.788 17.9555 42.9248 12.1045 53.147 12.1045C64.4803 12.1045 68.8906 17.5007 68.8906 28.9807V30.9101L68.8752 30.9083ZM57.0564 25.171V24.2614C57.0564 20.9082 55.8427 18.9788 53.5214 18.9788C51.1453 18.9788 49.9316 20.9082 49.9316 24.3191V25.1692H57.0564V25.171ZM95.7265 12.8986V21.5921H89.3897V28.6939C89.3897 32.3322 89.9487 34.0377 92.6684 34.0377C93.4034 34.0377 94.3949 33.9152 95.5573 33.6353V42.1539C92.6171 43.0635 89.6769 43.3959 86.5658 43.3959C82.7368 43.3959 79.7966 42.1365 78.0701 39.9849C75.8479 37.1337 75.7966 33.5654 75.7966 28.7901V21.5834H70.9402V12.8916H75.7778V6.30761L89.3897 1.93112V12.8986H95.7265Z" fill="white"/>
</svg>
