<svg width="200" height="26" viewBox="0 0 200 26" fill="none" xmlns="http://www.w3.org/2000/svg">
<g clipPath="url(#clip0_9_154)">
<path d="M0 1.42661C0 1.02674 0.266578 0.760165 0.666444 0.760165H8.66378C12.8624 0.626876 16.3279 3.89245 16.4612 8.09105C16.5945 12.2897 13.3289 15.7552 9.13029 15.8885C8.997 15.8885 8.86371 15.8885 8.66378 15.8885H4.46518V23.8858C4.46518 24.2857 4.1986 24.5522 3.79873 24.5522H0.666444C0.266578 24.5522 0 24.2857 0 23.8858V1.42661ZM8.3972 11.7565C10.3299 11.7565 11.9294 10.157 11.9294 8.22434C11.9294 8.22434 11.9294 8.22434 11.9294 8.1577C11.8627 6.29165 10.3299 4.82548 8.46384 4.82548H4.46518V11.6899H8.3972V11.7565Z" fill="white"/>
<path d="M14.3285 23.7526L23.7254 3.426C23.7921 3.22606 23.992 3.09277 24.2586 3.09277H24.5918C24.7917 3.09277 25.0583 3.22606 25.1249 3.426L34.4552 23.8192C34.5885 24.0858 34.5218 24.419 34.2552 24.5523C34.1886 24.6189 34.0553 24.6189 33.922 24.6189H31.2562C30.8564 24.6189 30.5231 24.419 30.3899 24.0191L28.9237 20.7536H19.86L18.3939 23.9525C18.2606 24.3524 17.9273 24.5523 17.5275 24.5523H14.8617C14.5951 24.5523 14.3285 24.3524 14.2619 24.0858C14.2619 24.0191 14.2619 23.8858 14.3285 23.7526ZM27.3909 17.3547L24.3919 10.6902H24.3252L21.3262 17.3547H27.3909Z" fill="white"/>
<path d="M36.5878 3.95918C36.5878 3.62595 36.8544 3.35938 37.1876 3.35938H45.8514C49.4502 3.35938 52.4492 6.22509 52.4492 9.89053C52.4492 12.6896 50.5832 14.9555 47.984 16.0218L52.116 23.6859C52.3159 23.9525 52.1826 24.2857 51.916 24.4857C51.7828 24.5523 51.7161 24.5523 51.5828 24.5523H48.3839C48.184 24.5523 47.984 24.4857 47.9174 24.2857L43.9187 16.2884H40.5865V23.9525C40.5865 24.2857 40.3199 24.4857 39.9867 24.5523H37.121C36.7878 24.5523 36.5212 24.2857 36.5212 23.9525L36.5878 3.95918ZM45.4515 13.0228C47.1176 12.9562 48.4505 11.6233 48.4505 9.95717C48.3839 8.35771 47.051 7.02482 45.4515 7.02482H40.5198V13.0228H45.4515Z" fill="white"/>
<path d="M58.9804 7.02482H54.3153C53.982 7.02482 53.7155 6.75824 53.7155 6.42502V3.95918C53.7155 3.62595 53.982 3.35938 54.3153 3.35938H67.5775C67.9107 3.35938 68.2439 3.95918 68.2439 3.95918L69.9101 6.42502C69.9101 6.75824 69.6435 7.02482 69.3103 7.02482H62.9124V24.0192C62.9124 24.3524 62.6458 24.5523 62.3126 24.619H59.5135C59.1803 24.619 58.9804 24.3524 58.9137 24.0192V7.02482H58.9804Z" fill="white"/>
<path d="M77.2409 14.3557L70.3766 4.22574C70.1766 3.95916 70.2433 3.62594 70.5099 3.42601C70.6431 3.35936 70.7098 3.29272 70.8431 3.29272H73.9087C74.1087 3.29272 74.3086 3.42601 74.3752 3.5593L79.2403 10.4903L84.1053 3.49265C84.2386 3.35936 84.3719 3.22607 84.5718 3.22607H87.7041C88.0373 3.22607 88.3039 3.42601 88.3039 3.75923C88.3039 3.89252 88.3039 4.02581 88.1706 4.09245L81.173 14.1558V23.8192C81.173 24.1524 80.9064 24.3524 80.5732 24.419H77.7741C77.4409 24.419 77.1743 24.1524 77.1743 23.8192V14.3557H77.2409Z" fill="white"/>
<path d="M187.671 0.960083C194.402 0.960083 199.933 6.42493 199.933 13.156C199.933 19.8871 194.469 25.4186 187.737 25.4186C181.006 25.4186 175.475 19.9538 175.475 13.2227C175.475 6.49157 180.873 0.960083 187.671 0.960083ZM187.671 21.0201C192.003 21.0201 195.535 17.5546 195.535 13.2227C195.535 8.89077 192.069 5.35862 187.737 5.35862C183.406 5.35862 179.873 8.82413 179.873 13.156V13.2227C179.94 17.4879 183.406 20.9534 187.671 21.0201Z" fill="#E31D8D"/>
<path d="M108.364 24.0191L117.761 3.62595C117.827 3.42601 118.027 3.29272 118.294 3.29272H118.56C118.76 3.29272 119.027 3.42601 119.094 3.62595L128.424 24.0191C128.557 24.2857 128.491 24.6189 128.224 24.7522C128.157 24.8189 128.024 24.8189 127.891 24.8189H125.292C124.892 24.8189 124.558 24.6189 124.425 24.2191L122.959 20.9535H113.895L112.429 24.2191C112.296 24.6189 111.963 24.8189 111.563 24.8189H108.897C108.63 24.8189 108.364 24.6189 108.364 24.2857C108.364 24.1524 108.364 24.0858 108.364 24.0191ZM121.493 17.5546L118.427 10.8902H118.361L115.428 17.5546H121.493Z" fill="#E31D8D"/>
<path d="M129.09 21.8199L130.157 19.9538C130.29 19.6206 130.69 19.4873 131.023 19.6206C131.09 19.6206 131.09 19.6873 131.156 19.6873C131.29 19.7539 133.755 21.5533 135.755 21.5533C137.354 21.5533 138.487 20.5536 138.487 19.2207C138.487 17.6879 137.154 16.6216 134.622 15.5553C131.756 14.4223 128.957 12.6229 128.957 9.02414C128.957 6.35836 130.956 3.22607 135.755 3.22607C137.954 3.22607 140.02 3.95916 141.819 5.22541C142.153 5.49199 142.219 5.89185 142.019 6.22507L140.886 7.95783C140.686 8.3577 140.22 8.49099 139.82 8.29105C139.553 8.15776 137.288 6.62494 135.621 6.62494C133.955 6.62494 132.956 7.7579 132.956 8.75756C132.956 10.1571 134.089 11.1568 136.554 12.1564C139.487 13.356 142.886 15.0888 142.886 19.0208C142.886 22.1531 140.22 25.0188 135.955 25.0188C133.489 25.0855 131.156 24.2191 129.29 22.6863C128.957 22.4197 128.824 22.2864 129.09 21.8199Z" fill="#E31D8D"/>
<path d="M146.418 4.15913C146.418 3.8259 146.684 3.62597 147.018 3.55933H149.817C150.15 3.55933 150.35 3.8259 150.417 4.15913V24.2191C150.417 24.5523 150.15 24.7523 149.817 24.8189H147.018C146.684 24.8189 146.484 24.5523 146.418 24.2191V4.15913Z" fill="#E31D8D"/>
<path d="M155.548 3.82588C155.548 3.49266 155.815 3.29272 156.148 3.29272H156.881L169.543 16.6216V4.09246C169.543 3.75924 169.81 3.49266 170.143 3.49266H172.942C173.276 3.49266 173.476 3.75924 173.542 4.09246V24.4857C173.542 24.8189 173.276 25.0188 172.942 25.0188H172.209L159.547 11.1568V24.1524C159.547 24.4857 159.28 24.7522 158.947 24.7522H156.215C155.881 24.7522 155.681 24.4857 155.615 24.1524L155.548 3.82588Z" fill="#E31D8D"/>
<path d="M107.564 18.1544C107.164 18.4876 104.698 20.6202 101.899 21.0201C101.499 21.0867 101.033 21.1534 100.633 21.1534C96.3012 21.1534 93.0357 17.0881 93.0357 12.8228C93.0357 8.55759 96.2346 4.89215 100.633 4.89215C102.566 4.89215 104.432 5.62524 105.898 6.89148C106.098 7.15806 106.431 7.15806 106.698 6.95812L106.764 6.89148L108.83 4.75886C109.097 4.49228 109.097 4.09241 108.83 3.82583C106.631 1.69321 103.632 0.560256 100.566 0.693545C93.8354 0.693545 88.3039 6.15839 88.3039 12.9561C88.3039 19.6872 93.7687 25.2187 100.566 25.2187C105.032 25.2187 106.365 23.6192 106.365 23.6192C106.365 23.6192 108.564 19.2873 108.764 18.7542C108.964 18.221 108.764 17.3547 107.564 18.1544Z" fill="#E31D8D"/>
</g>
<defs>
<clipPath id="clip0_9_154">
<rect width="200" height="24.7917" fill="white" transform="translate(0 0.626953)"/>
</clipPath>
</defs>
</svg>
