<?xml version="1.0" standalone="no"?>
<!DOCTYPE svg PUBLIC "-//W3C//DTD SVG 20010904//EN"
 "http://www.w3.org/TR/2001/REC-SVG-20010904/DTD/svg10.dtd">
<svg version="1.0" xmlns="http://www.w3.org/2000/svg"
 width="500.000000pt" height="500.000000pt" viewBox="0 0 500.000000 500.000000"
 preserveAspectRatio="xMidYMid meet">
<metadata>
Created by potrace 1.14, written by Peter Selinger 2001-2017
</metadata>
<g transform="translate(0.000000,500.000000) scale(0.100000,-0.100000)"
fill="#000000" stroke="none">
<path d="M2400 4415 c-158 -40 -298 -146 -363 -274 -7 -13 -28 -30 -47 -37
-148 -53 -202 -75 -238 -98 -23 -14 -44 -26 -48 -26 -6 0 -109 -67 -184 -121
-72 -51 -129 -104 -222 -206 -177 -194 -296 -409 -383 -690 0 0 -18 -4 -40 -7
-22 -3 -58 -9 -80 -12 -22 -3 -68 -19 -101 -35 -165 -78 -255 -237 -241 -426
7 -99 50 -188 125 -261 l23 -22 -34 -15 c-44 -18 -93 -74 -106 -122 -15 -52
-13 -128 2 -188 8 -27 10 -62 7 -76 -9 -33 -3 -104 11 -132 23 -44 74 -88 128
-108 81 -31 213 -34 319 -9 107 26 113 25 139 -8 39 -49 58 -68 93 -92 19 -13
86 -74 147 -136 177 -177 237 -223 436 -328 124 -66 346 -136 503 -159 17 -3
51 -19 74 -36 119 -86 312 -83 443 8 25 17 55 31 67 31 80 0 305 68 450 137
335 159 644 475 776 794 20 49 44 91 53 94 9 2 41 10 71 15 30 6 66 14 79 16
14 3 81 16 150 30 70 14 142 33 161 42 61 30 63 43 63 372 0 282 -1 297 -21
337 -12 22 -38 54 -57 71 l-37 30 25 48 c13 27 41 98 62 159 33 96 38 124 43
230 3 81 1 134 -7 158 -15 44 -58 82 -112 98 -45 14 -76 10 -352 -45 l-169
-33 -31 44 c-122 167 -166 220 -253 302 -166 157 -382 288 -584 356 -87 29
-97 35 -117 71 -60 106 -174 199 -297 242 -88 31 -242 39 -326 17z"/>
</g>
</svg>
